<?xml version="1.0" standalone="no"?>
<!DOCTYPE svg PUBLIC "-//W3C//DTD SVG 20010904//EN"
 "http://www.w3.org/TR/2001/REC-SVG-20010904/DTD/svg10.dtd">
<svg version="1.0" xmlns="http://www.w3.org/2000/svg"
 width="96.000000pt" height="96.000000pt" viewBox="0 0 96.000000 96.000000"
 preserveAspectRatio="xMidYMid meet">
<metadata>
Created by potrace 1.14, written by Peter Selinger 2001-2017
</metadata>
<g transform="translate(0.000000,96.000000) scale(0.100000,-0.100000)"
fill="#000000" stroke="none">
<path d="M514 812 c-117 -41 -254 -154 -269 -223 -10 -43 11 -86 47 -98 34
-12 48 -7 48 15 0 29 50 112 99 166 54 59 139 111 174 106 34 -5 35 -57 2
-124 -37 -75 -135 -173 -135 -135 0 5 16 32 35 61 40 60 40 60 19 60 -23 0
-86 -53 -119 -99 -15 -23 -33 -41 -40 -41 -7 0 -18 -7 -26 -16 -10 -13 -10
-17 1 -24 8 -5 11 -18 7 -36 -8 -41 16 -92 47 -100 43 -10 51 -1 48 53 -3 43
-7 51 -30 60 -27 11 -26 11 10 12 20 1 47 5 61 10 29 11 43 4 56 -32 13 -33
-4 -81 -37 -110 -30 -27 -90 -46 -145 -47 -57 0 -82 11 -100 46 l-14 26 -21
-27 c-40 -51 -20 -130 40 -161 79 -41 246 15 315 105 58 76 64 170 13 216 -19
17 -19 18 35 57 130 93 166 237 70 282 -43 21 -127 20 -191 -2z"/>
</g>
</svg>
